<svg xmlns="http://www.w3.org/2000/svg" viewBox="0 0 25.5 20.3"><path d="M25.5 17.3s0 3-3 3H3s-3 0-3-3V3s0-3 3-3h19.5s3 0 3 3v14.3z" fill="#ed812b"/><path d="M12.8 10.2c2.2 0 4-1.8 4-4s-1.8-4-4-4-4 1.8-4 4 1.7 4 4 4zm0-5.9c1.1 0 2 .9 2 2s-.9 2-2 2-2-.9-2-2c0-1.2.9-2 2-2zm4.6 6.4c-.2-.5-.9-.8-1.7-.2-1.1.9-2.9.9-2.9.9s-1.8 0-2.9-.9c-.9-.6-1.5-.2-1.8.2-.4.8.1 1.2 1.1 1.8.9.6 2 .8 2.8.8l-.6.7L9 16.4c-.4.4-.4.9 0 1.3l.1.1c.4.4.9.4 1.3 0l2.4-2.4 2.4 2.4c.4.4.9.4 1.3 0l.1-.1c.4-.4.4-.9 0-1.3L14.2 14l-.6-.6c.8-.1 1.9-.3 2.8-.8.9-.7 1.4-1.1 1-1.9z" fill="#fff"/></svg>
