<svg xmlns="http://www.w3.org/2000/svg" viewBox="0 0 25.5 20.3"><linearGradient id="a" gradientUnits="userSpaceOnUse" x1="12.756" x2="12.756" y2="20.185"><stop offset="0" stop-color="#2ebee7"/><stop offset="1" stop-color="#12a8db"/></linearGradient><path d="M25.5 17.3s0 3-3 3H3s-3 0-3-3V3s0-3 3-3h19.5s3 0 3 3v14.3z" fill="url(#a)"/><path d="M19.9 4.4l-2.3 11.4s-.3.8-1.2.4l-5.2-4-1.9-.9-3.2-1.1s-.5-.2-.5-.6c0-.4.6-.6.6-.6l12.7-5c0 .1 1-.4 1 .4z" fill="#fff"/><path d="M10.8 15.7s-.2 0-.3-.6c-.2-.6-1.2-3.8-1.2-3.8L17 6.4s.4-.3.4 0c0 0 .1 0-.2.3-.2.2-6 5.4-6 5.4" fill="#c6deea"/><path d="M13.2 13.7l-2.1 1.9s-.2.1-.3 0l.4-3.5" fill="#a7c8dd"/></svg>
