<svg id="Layer_1" xmlns="http://www.w3.org/2000/svg" viewBox="0 0 25.5 20.3"><style>.st3{fill-rule:evenodd;clip-rule:evenodd;fill:#efe9f3}</style><path d="M25.5 17.3s0 3-3 3H3s-3 0-3-3V3s0-3 3-3h19.5s3 0 3 3v14.3z" fill-rule="evenodd" clip-rule="evenodd" fill="#7c529d"/><path d="M19.3 14.4c1.4-.6 2.3-1.7 2.5-3.3.2-1.2 0-2.9 0-4-.2-2-1.5-3.5-3.5-3.9-1.6-.4-7.4-.7-10.7-.2-2.2.4-3.5 1.7-3.9 3.9-.2 1.1-.1 2.2 0 3.2.2 2.5 1.7 3.7 3.9 4.2.6.1 1.3.2 1.9.2.5 0 .6.2.6.7V17c0 .2-.1.4.1.4.2.1.3-.1.4-.2.6-.7 1.3-1.4 1.9-2.1.1-.2.3-.3.5-.3 2.6.2 5 .1 6.3-.4z" fill="none" stroke="#fff" stroke-width=".709" stroke-miterlimit="10"/><path d="M14.6 13.2c-.1 0-.3 0-.4-.1-2.6-1.1-4.5-3-5.6-5.7-.4-.9 0-1.6.9-2 .2-.1.3-.1.5 0 .4.1 1.4 1.5 1.4 1.9 0 .3-.2.5-.4.6-.4.3-.4.6-.2 1 .4.9 1 1.5 1.9 1.8.3.1.6.1.8-.2.4-.6.8-.5 1.3-.2.3.2.5.4.7.5.3.3.7.5.5 1-.1.8-.8 1.4-1.4 1.4z" fill-rule="evenodd" clip-rule="evenodd" fill="#faf9fb"/><path class="st3" d="M12.7 5.3c1.8.1 3.4 1.8 3.4 3.6 0 .2.1.4-.2.4-.3 0-.2-.3-.2-.5-.2-1.9-1.1-2.9-3.1-3.1-.2 0-.4 0-.4-.2.1-.3.4-.2.5-.2z"/><path class="st3" d="M15.2 8.5c0 .1.1.4-.2.4-.3 0-.2-.2-.3-.4-.2-1.2-.6-1.6-1.8-1.9-.2 0-.4 0-.4-.3s.3-.2.5-.1c1.2.2 2.2 1.2 2.2 2.3z"/><path class="st3" d="M14.3 8.3c0 .1 0 .3-.2.3-.1 0-.2-.1-.2-.2 0-.5-.3-.8-.8-.9-.1 0-.3-.1-.2-.3 0-.1.2-.1.3-.1.5 0 1.1.7 1.1 1.2z"/></svg>
