<svg xmlns="http://www.w3.org/2000/svg" viewBox="0 0 25.5 20.3"><path d="M25.5 17.3s0 3-3 3H3s-3 0-3-3V3s0-3 3-3h19.5s3 0 3 3v14.3z" fill="#4c75a3"/><path d="M17.4 14.4c-.8-.1-1.3-.7-1.8-1.2-.2-.3-.6-.9-1.1-.8-.6.1-.3 1.2-.6 1.7-.2.4-1.1.3-1.8.2-2-.2-3-1.3-3.9-2.4-1-1.2-1.7-2.5-2.4-3.9-.2-.5-.5-1-.5-1.6.3-.3.9-.2 1.4-.2.5 0 1.2-.1 1.5.1.2.1.4.6.6 1 .4.8.7 1.3 1.2 2 .2.3.5.8.8.7.3-.1.4-.9.4-1.4 0-.6 0-1.4-.2-1.7-.2-.3-.5-.3-.8-.5.3-.5.9-.6 1.8-.6.7 0 1.7-.1 2 .4.3.5.1 1.3.1 2s-.1 1.5.3 1.8c.4 0 .6-.4.8-.7.5-.6.8-1.2 1.2-2 .2-.3.3-.9.6-1 .4-.2 1.1 0 1.7 0 .5 0 1.4-.1 1.6.2.1.3-.3 1-.4 1.2-.5.8-.9 1.3-1.4 1.9-.2.3-.6.7-.6 1.1 0 .3.3.6.6.8l1.4 1.4c.2.2.5.7.5.9-.3.9-2.3.4-3 .6z" fill-rule="evenodd" clip-rule="evenodd" fill="#fff"/></svg>
