<svg id="Layer_1" xmlns="http://www.w3.org/2000/svg" viewBox="0 0 25.5 20.3"><style>.st1{fill:#fff}</style><linearGradient id="SVGID_1_" gradientUnits="userSpaceOnUse" x1="12.756" y1="20.259" x2="12.756"><stop offset="0" stop-color="#58af33"/><stop offset=".5" stop-color="#0b9636"/><stop offset="1" stop-color="#58af33"/></linearGradient><path d="M25.5 17.3s0 3-3 3H3s-3 0-3-3V3s0-3 3-3h19.5s3 0 3 3v14.3z" fill="url(#SVGID_1_)"/><path class="st1" d="M12.9 3.3c-3.7 0-6.7 3-6.7 6.7 0 1.8 1 3.5 1 3.5L6 17l3.7-1.2s1.4.8 3.2.8c3.7 0 6.7-3 6.7-6.7 0-3.6-3-6.6-6.7-6.6zm0 12.3c-1.7 0-3.1-.9-3.1-.9l-2.1.7.7-2s-1.1-1.5-1.1-3.3c0-3.1 2.5-5.6 5.6-5.6 3.1 0 5.6 2.5 5.6 5.6 0 3-2.5 5.5-5.6 5.5z"/><path class="st1" d="M10.3 7s.2-.1.3-.1h.5s.1 0 .2.2c.1.1.5 1.2.5 1.3 0 .1.1.3 0 .5s-.4.5-.4.5-.1.1 0 .3c.1.2.4.7.9 1.1.5.4 1 .7 1.3.8.3.1.3 0 .4-.2.1-.1.4-.6.4-.6s.1-.2.3-.1c.2.1 1.3.6 1.3.6s.1 0 .1.2c0 .1.1.6-.3 1s-1.2.6-1.6.5c-.4-.1-1.7-.5-2.6-1.3S10 10 9.8 9.4c-.3-.6-.3-1-.3-1.2s.3-.8.8-1.2z"/></svg>
