<svg xmlns="http://www.w3.org/2000/svg" viewBox="0 0 145.127 144.559" height="41" width="42"><defs><clipPath id="a"><path d="M0 0h108.845v108.419H0z"/></clipPath></defs><g clip-path="url(#a)" transform="matrix(1.33333 0 0 -1.33333 0 144.559)"><path d="M99.066 99.916H76.744v6.378a2.125 2.125 0 0 1-2.126 2.125H34.227a2.125 2.125 0 0 1-2.126-2.125v-6.378H9.779c-5.392 0-9.78-4.387-9.78-9.779V33.801c0-5.392 4.388-9.779 9.78-9.779h32.763l3.377-6.078v-5.189H33.164a2.127 2.127 0 0 1-2.063-1.61l-1.723-6.893h-.252A2.128 2.128 0 0 1 27 2.126 2.13 2.13 0 0 1 29.126 0h50.09a2.13 2.13 0 0 1 2.126 2.126 2.128 2.128 0 0 1-2.126 2.126h.25l-1.722 6.893a2.127 2.127 0 0 1-2.063 1.61H62.926v5.189l3.377 6.078h32.763c5.392 0 9.779 4.387 9.779 9.779v56.336c0 5.392-4.387 9.779-9.78 9.779M96.09 36.778H56.549v50.383h39.54zm-59.737 67.39h36.14V91.413h-36.14zm15.944-17.007v-41.88h-4.252v9.022c0 5.476-2.887 10.29-7.226 13.027a9.728 9.728 0 0 1 1.91 5.8c0 5.392-4.386 9.779-9.778 9.779s-9.78-4.387-9.78-9.779a9.72 9.72 0 0 1 1.659-5.44c-4.67-2.661-7.823-7.664-7.823-13.387v-9.022h-4.251v41.88zM32.95 67.603a5.533 5.533 0 0 0-5.527 5.527 5.533 5.533 0 0 0 5.527 5.527 5.534 5.534 0 0 0 5.528-5.527 5.534 5.534 0 0 0-5.528-5.527m-4.784-2.997a9.713 9.713 0 0 1 4.784-1.255 9.72 9.72 0 0 1 4.398 1.048c3.806-1.795 6.444-5.645 6.444-10.096v-9.022H21.259v9.022c0 4.63 2.854 8.61 6.908 10.303m24.13-27.828H12.756v4.252h39.54zM74.022 8.503l1.062-4.251H33.76l1.063 4.251zM49.904 19.527l-2.498 4.495h14.033l-2.497-4.495a2.128 2.128 0 0 1-.268-1.032v-5.74H50.17v5.74c0 .361-.092.717-.267 1.032m54.689 14.274a5.533 5.533 0 0 0-5.527-5.527H9.779a5.534 5.534 0 0 0-5.527 5.527v56.336a5.533 5.533 0 0 0 5.527 5.527H32.1v-4.251H10.63a2.126 2.126 0 0 1-2.126-2.126V34.652c0-1.174.952-2.126 2.126-2.126h87.586c1.174 0 2.126.952 2.126 2.126v54.635a2.126 2.126 0 0 1-2.126 2.126H76.744v4.251h22.322a5.533 5.533 0 0 0 5.527-5.527z" fill="#fff"/><path d="M66.115 99.916H51.234a2.13 2.13 0 0 1-2.126-2.126 2.13 2.13 0 0 1 2.126-2.126h14.88a2.13 2.13 0 0 1 2.127 2.126 2.13 2.13 0 0 1-2.126 2.126M42.73 99.916a2.13 2.13 0 0 1-2.126-2.126 2.13 2.13 0 0 1 2.126-2.126 2.13 2.13 0 0 1 2.126 2.126 2.13 2.13 0 0 1-2.126 2.126M62.926 44.643h18.283a2.126 2.126 0 0 1 0 4.252H62.926a2.126 2.126 0 0 1 0-4.252M62.926 53.147a2.13 2.13 0 0 1 2.126 2.126 2.13 2.13 0 0 1-2.126 2.126 2.13 2.13 0 0 1-2.126-2.126 2.13 2.13 0 0 1 2.126-2.126M89.712 57.398H71.429a2.13 2.13 0 0 1-2.125-2.126 2.13 2.13 0 0 1 2.125-2.125h18.283a2.13 2.13 0 0 1 2.126 2.126 2.13 2.13 0 0 1-2.126 2.125M62.926 61.65h26.786a2.126 2.126 0 0 1 0 4.252H62.926a2.126 2.126 0 0 1 0-4.252M89.712 74.406a2.128 2.128 0 0 1-2.126-2.127c0-1.17.952-2.125 2.126-2.125a2.13 2.13 0 0 1 2.126 2.125 2.13 2.13 0 0 1-2.126 2.127M62.926 70.154h18.283a2.13 2.13 0 0 1 2.125 2.126 2.13 2.13 0 0 1-2.125 2.126H62.926A2.13 2.13 0 0 1 60.8 72.28a2.13 2.13 0 0 1 2.126-2.126M62.926 78.657h26.786a2.126 2.126 0 0 1 0 4.252H62.926a2.126 2.126 0 0 1 0-4.252" fill="#fff"/></g></svg>
