<svg xmlns="http://www.w3.org/2000/svg" viewBox="0 0 600 682.667" height="33" width="30"><g fill="#fff"><path d="M300 240c-11.028 0-20-8.972-20-20s8.972-20 20-20c10.255 0 18.72 7.76 19.86 17.713a20.019 20.019 0 0 0-.141 5.495C318.175 232.713 309.933 240 300 240zm-75.35 97.956c41.337 26.484 92.08 29.299 139.234 7.604 10.033-4.616 14.427-16.493 9.81-26.528-4.617-10.033-16.493-14.427-26.529-9.81-34.48 15.863-71.272 14.06-100.937-4.946C217.281 285.731 200 254.226 200 220c0-55.14 44.86-100 100-100s100 44.86 100 100c0 11.028-8.972 20-20 20-10.077 0-19.49-7.643-19.997-19.696A23.107 23.107 0 0 1 360 220c0-33.084-26.916-60-60-60s-60 26.916-60 60 26.916 60 60 60c15.355 0 29.375-5.804 39.999-15.325C350.62 274.197 364.644 280 380 280c33.084 0 60-26.916 60-60 0-77.196-62.804-140-140-140s-140 62.804-140 140c0 47.924 24.168 92.02 64.65 117.956"/><path d="M560 614.383L408.284 462.667 560 310.95zM68.285 642.667l159.999-160h143.432l159.999 160zM40 614.383V310.95l151.716 151.716zm40-320l-31.716-31.716L80 230.95zM480 40V334.383L371.716 442.667H228.284L120 334.383v-151.71V40zm71.716 222.667L520 294.383V230.95zm48.283-.032a20.135 20.135 0 0 0-5.858-14.111L520 174.383V20c0-11.045-8.955-20-20-20H100C88.955 0 80 8.955 80 20v154.383L5.859 248.524c-.07.07-.128.147-.196.217a20.087 20.087 0 0 0-5.661 13.894l-.002.038v359.994c0 33.126 26.955 60 60 60h480c33.119 0 60-26.943 60-60V262.673l-.001-.038"/></g></svg>
