<svg xmlns="http://www.w3.org/2000/svg" viewBox="0 0 62.667 50.667" height="108" width="137"><path d="M38.973 23.903l-11.733-7.47a1.074 1.074 0 0 0-1.09-.036 1.072 1.072 0 0 0-.552.938v14.932c0 .39.214.75.553.937.161.084.339.13.516.13.197 0 .401-.057.573-.166l11.733-7.47c.308-.191.496-.535.496-.9s-.188-.703-.496-.895zm-11.238 6.421V19.277l8.677 5.52z" fill="#adadad"/><path d="M60.803.267H1.068C.478.267 0 .745 0 1.335v46.932a1.07 1.07 0 0 0 1.068 1.068h59.735c.588 0 1.061-.48 1.061-1.068V1.335c0-.59-.473-1.068-1.061-1.068zM10.667 23.736H2.136v-9.605h8.53zm-8.531 2.13h8.53v9.598h-8.53zm10.667 10.666V2.402h36.265v44.796H12.803zm46.932-12.796h-8.538v-9.605h8.538zm-8.538 2.13h8.538v9.598h-8.538zm8.538-13.864h-8.538v-9.6h8.538zm-57.6-9.6h8.532v9.6H2.136zm0 35.198h8.532v9.598H2.136zm57.6 9.598h-8.538V37.6h8.538z" fill="#adadad"/></svg>
