<svg xmlns="http://www.w3.org/2000/svg" viewBox="0 0 119.462 148.027" height="37" width="30"><defs><clipPath id="a"><path d="M0 0h89.597v111.02H0z"/></clipPath><clipPath id="b"><path d="M0 0h89.597v111.02H0z"/></clipPath></defs><g clip-path="url(#a)" transform="matrix(1.33333 0 0 -1.33333 0 148.027)"><path d="M85.624 99.314h-8.04v8.047a3.66 3.66 0 0 1-4.26 3.608L3.06 99.264A3.66 3.66 0 0 1 0 95.653v-91.6A3.66 3.66 0 0 1 3.66.393h81.964a3.66 3.66 0 0 1 3.66 3.66v91.6c0 2.02-1.64 3.66-3.66 3.66M7.32 92.553l62.945 10.486V18.852L7.32 8.372zm74.644-84.84H47.923l26.602 4.428a3.661 3.661 0 0 1 3.06 3.61v76.241h4.379z" fill="#fff"/></g><g clip-path="url(#b)" transform="matrix(1.33333 0 0 -1.33333 0 148.027)"><path d="M57.138 86.618l-37.813-5.854a3.66 3.66 0 0 1 1.123-7.235l37.81 5.857a3.659 3.659 0 1 1-1.12 7.232" fill="#fff"/></g></svg>
