<svg xmlns="http://www.w3.org/2000/svg" viewBox="0 0 485.333 516" height="33" width="32"><path d="M392.317 330.987c-29.546 0-55.89 14.077-72.744 35.837l-141.12-78.823a92.158 92.158 0 0 0 5.12-30.296c0-10.666-1.813-20.797-5.224-30.396l141.011-78.724c16.744 21.87 43.203 36.058 72.853 36.058 50.558 0 91.839-41.178 91.839-91.844C484.052 42.132 442.88.96 392.213.96c-50.666 0-91.838 41.172-91.838 91.839 0 10.666 1.813 20.906 5.224 30.401l-140.906 78.719c-16.745-21.975-43.198-36.052-72.854-36.052C41.28 165.867 0 207.039 0 257.705c0 50.667 41.281 91.843 91.948 91.843 29.65 0 56.104-14.187 72.959-36.161l141.014 78.828c-3.416 9.6-5.333 19.942-5.333 30.609 0 50.562 41.172 91.844 91.839 91.844 50.666 0 91.838-41.177 91.838-91.844 0-50.667-41.281-91.837-91.948-91.837zm0-301.12c34.776 0 63.043 28.265 63.043 63.041 0 34.77-28.267 63.036-63.043 63.036-34.77 0-63.036-28.265-63.036-63.036 0-34.776 28.37-63.041 63.036-63.041zm-300.37 290.88c-34.775 0-63.04-28.266-63.04-63.042 0-34.772 28.265-63.037 63.04-63.037 34.772 0 63.037 28.265 63.037 63.037 0 34.776-28.37 63.042-63.036 63.042zm300.37 165.016c-34.77 0-63.036-28.272-63.036-63.043 0-34.776 28.266-63.041 63.036-63.041 34.776 0 63.043 28.265 63.043 63.04 0 34.772-28.267 63.044-63.043 63.044z" fill="#fff"/></svg>
