<svg xmlns="http://www.w3.org/2000/svg" viewBox="0 0 59.272 233.68" height="175" width="45"><defs><clipPath id="a"><path d="M0 0h44.454v175.26H0z"/></clipPath></defs><path d="M14.19 233.68h32.6v-77.165h-32.6z" fill="#adadad"/><g clip-path="url(#a)" transform="matrix(1.33333 0 0 -1.33333 0 233.68)"><path d="M40.974 164.646l-6.378 9.567s-14.882-1.3-22.677-7.913c-7.795-6.615-12.756-16.536-10.276-25.748 2.481-9.213 6.378-13.23 9.922-14.41 3.543-1.181 5.315 0 5.315 0l5.314 3.78s-13.228.944-17.126 8.03c-3.897 7.088 3.636 14.205 9.686 18.544 16.299 11.693 26.22 8.15 26.22 8.15" fill="#adadad"/><path d="M40.974 164.646l-6.378 9.567s-14.882-1.3-22.677-7.913c-7.795-6.615-12.756-16.536-10.276-25.748 2.481-9.213 6.378-13.23 9.922-14.41 3.543-1.181 5.315 0 5.315 0l5.314 3.78s-13.228.944-17.126 8.03c-3.897 7.088 3.636 14.205 9.686 18.544 16.299 11.693 26.22 8.15 26.22 8.15z" fill="none" stroke="#adadad" stroke-width="2"/><path d="M42.391 126.614l.71-7.559s-18.19-5.315-22.915-8.032c-4.724-2.716-10.039-8.385-7.913-10.51 2.126-2.127 11.693-4.608 15.945-7.442 4.252-2.835 7.086-5.197 6.732-7.796-.354-2.598-1.417-5.315-7.44-7.086-6.024-1.772-10.63-7.795-8.15-10.63 2.48-2.835 2.126-27.874 2.126-27.874s-.709 22.086-2.126 24.094c-1.418 2.008-5.079 10.867-2.126 12.992 2.952 2.126 15.944 5.67 12.401 9.213-3.543 3.543-6.378 6.378-14.173 7.441-7.795 1.063-6.614 11.93-6.614 14.528 0 2.598 6.26 7.795 14.41 12.047 8.15 4.252 19.133 6.614 19.133 6.614" fill="#adadad"/><path d="M42.391 126.614l.71-7.559s-18.19-5.315-22.915-8.032c-4.724-2.716-10.039-8.385-7.913-10.51 2.126-2.127 11.693-4.608 15.945-7.442 4.252-2.835 7.086-5.197 6.732-7.796-.354-2.598-1.417-5.315-7.44-7.086-6.024-1.772-10.63-7.795-8.15-10.63 2.48-2.835 2.126-27.874 2.126-27.874s-.709 22.086-2.126 24.094c-1.418 2.008-5.079 10.867-2.126 12.992 2.952 2.126 15.944 5.67 12.401 9.213-3.543 3.543-6.378 6.378-14.173 7.441-7.795 1.063-6.614 11.93-6.614 14.528 0 2.598 6.26 7.795 14.41 12.047 8.15 4.252 19.133 6.614 19.133 6.614z" fill="none" stroke="#adadad" stroke-width="2"/><path d="M26.092 96.406c9.313 0 16.862 7.548 16.862 16.861 0 9.314-7.549 16.863-16.862 16.863-9.313 0-16.862-7.55-16.862-16.862 0-9.313 7.55-16.862 16.862-16.862z" fill="none" stroke="#adadad" stroke-width="3"/></g></svg>
