<svg xmlns="http://www.w3.org/2000/svg" viewBox="0 0 546.667 416" height="30" width="39"><path d="M357.13 183.727L236.474 117.71c-6.937-3.798-15.134-3.656-21.937.374-6.801 4.031-10.859 11.156-10.859 19.063v130.901c0 7.87 4.031 14.984 10.792 19.02 3.526 2.11 7.438 3.167 11.359 3.167 3.593 0 7.193-.885 10.505-2.672l120.656-64.875a22.144 22.144 0 0 0 11.667-19.437 22.136 22.136 0 0 0-11.525-19.525zm-121.453 67.858v-97.833l90.178 49.339z" fill="#fff"/><path d="M542.115 98.96l-.022-.25c-.462-4.395-5.066-43.494-24.077-63.38-21.97-23.39-46.88-26.234-58.86-27.6-.99-.109-1.896-.213-2.708-.322l-.959-.099C383.292 2.06 274.255 1.34 273.161 1.336h-.192c-1.089.004-110.125.724-182.98 5.973l-.958.099c-.776.104-1.63.199-2.562.308-11.838 1.37-36.48 4.213-58.516 28.453C9.85 55.84 4.615 94.107 4.08 98.403l-.063.557C3.855 100.793 0 144.336 0 188.055v40.864c0 43.718 3.855 87.265 4.016 89.098l.03.276c.464 4.323 5.063 42.71 23.985 62.604 20.657 22.606 46.776 25.6 60.829 27.21 2.219.25 4.13.467 5.437.697l1.26.177c41.688 3.964 172.391 5.916 177.932 6h.334c1.094-.005 110.125-.724 182.328-5.974l.953-.1c.912-.119 1.937-.228 3.063-.343 11.776-1.25 36.281-3.848 58.01-27.755 18.104-19.682 23.344-57.942 23.875-62.24l.063-.557c.166-1.833 4.021-45.375 4.021-89.093v-40.864c0-43.719-3.855-87.262-4.021-89.095zM514.13 228.919c0 40.464-3.538 82.136-3.871 85.958-1.353 10.542-6.875 34.75-15.697 44.333-13.599 14.963-27.574 16.449-37.771 17.526-1.235.13-2.376.256-3.407.385-69.833 5.048-174.754 5.824-179.588 5.855-5.422-.079-134.213-2.052-174.63-5.807-2.074-.333-4.307-.594-6.667-.86-11.964-1.369-28.339-3.245-40.927-17.099l-.297-.313c-8.667-9.03-14.03-31.666-15.39-43.894-.255-2.891-3.88-45.054-3.88-86.084v-40.864c0-40.418 3.525-82.043 3.863-85.948 1.62-12.412 7.246-35.152 15.704-44.344C65.588 42.345 80.364 40.637 90.14 39.507c.933-.11 1.808-.208 2.61-.312 70.849-5.074 176.526-5.828 180.318-5.859 3.792.025 109.427.785 179.65 5.859.86.109 1.803.218 2.813.333 10.057 1.145 25.25 2.88 39.198 17.755l.131.136c8.667 9.03 14.025 32.062 15.39 44.536.24 2.729 3.88 44.985 3.88 86.1z" fill="#fff"/></svg>
